<svg xmlns="http://www.w3.org/2000/svg" viewBox="0 0 191.59 77.86"><defs><style>.cls-1{fill:#ff6900;}</style></defs><g id="Calque_2" data-name="Calque 2"><g id="Capa_2" data-name="Capa 2"><path class="cls-1" d="M85,73.22c20.76-.47,43.91-2.29,66.64-7.7a92,92,0,0,0,20.55-7,48.54,48.54,0,0,0,8.36-5.25,20,20,0,0,0,4.69-5.57c2.86-5,2.06-10.13-2.31-13.85a41.82,41.82,0,0,0-8.56-5.51,133.15,133.15,0,0,0-27.72-9.65,138.44,138.44,0,0,0-24.06-3.21,8.41,8.41,0,0,1-2.82-.37c-.66-.3-1.55-1.24-1.47-1.77a3.21,3.21,0,0,1,1.59-2,5.71,5.71,0,0,1,2.51-.22c13.16-.12,25.87,2.5,38.24,6.76a170.36,170.36,0,0,1,17.71,7.3A33.54,33.54,0,0,1,186.67,31c5.19,4.85,6.25,11.42,3.3,17.88a23.06,23.06,0,0,1-6.74,8.41c-5.06,4.07-10.88,6.67-16.93,8.82-11.71,4.14-23.84,6.51-36.09,8.25a351.89,351.89,0,0,1-44,3.45c-17.65.28-35.18-.62-52.43-4.69a69.46,69.46,0,0,1-19.6-7.61A34,34,0,0,1,3.8,56.65C-.7,50.57-1.15,44.11,2.17,37.38A33.2,33.2,0,0,1,9.9,27.67c8.17-7.44,17.8-12.44,28-16.4,13.3-5.17,27.16-8,41.28-9.74a235.74,235.74,0,0,1,54.28.08c15.61,1.73,31,4.59,45.77,10.17,1.89.71,3.71,1.6,5.55,2.45,1.28.6,2.11,1.53,1.56,3.05-.41,1.14-1.65,1.48-3.3.73-9.29-4.21-19.19-6.34-29.1-8.42a246.3,246.3,0,0,0-35.18-4.47,208.79,208.79,0,0,0-62.24,5.27A119.43,119.43,0,0,0,25,22.55,58.28,58.28,0,0,0,11.05,33.17,31.75,31.75,0,0,0,7,38.47c-3.55,5.93-3,11.76,1.77,16.69A43.92,43.92,0,0,0,17,61.63c6.62,4.06,14,6.19,21.56,7.74C53,72.35,67.7,73.26,85,73.22Z"/></g></g></svg>